<?xml version="1.0" encoding="UTF-8"?>
<!DOCTYPE svg PUBLIC "-//W3C//DTD SVG 1.1//EN" "http://www.w3.org/Graphics/SVG/1.1/DTD/svg11.dtd">
<!-- Creator: CorelDRAW X6 -->
<svg xmlns="http://www.w3.org/2000/svg" xml:space="preserve" width="32.6217mm" height="24.6992mm" version="1.1" style="shape-rendering:geometricPrecision; text-rendering:geometricPrecision; image-rendering:optimizeQuality; fill-rule:evenodd; clip-rule:evenodd"
viewBox="0 0 4450 3369"
 xmlns:xlink="http://www.w3.org/1999/xlink">
 <defs>
  <style type="text/css">
   <![CDATA[
    .str0 {stroke:black;stroke-width:27.2823;stroke-linecap:round;stroke-linejoin:round}
    .fil8 {fill:none}
    .fil2 {fill:#38363B}
    .fil4 {fill:#5D5367}
    .fil5 {fill:#896D70}
    .fil3 {fill:#B18379}
    .fil0 {fill:#B8ADAA}
    .fil7 {fill:#D8D375}
    .fil1 {fill:#EFD5BC}
    .fil6 {fill:#FEF7E4}
   ]]>
  </style>
 </defs>
 <g id="图层_x0020_1">
  <metadata id="CorelCorpID_0Corel-Layer"/>
  <path class="fil0" d="M2833 2225l34 9c19,-102 56,-144 104,-232l-43 -9c-46,64 -27,57 -82,122 -76,88 59,6 -52,107l39 3z"/>
  <path class="fil1" d="M3967 1009c-191,37 -431,151 -619,158 -238,198 -338,486 -544,683l-111 182c2,39 11,31 -28,23l-112 158 185 248c6,-76 -5,-77 61,-108l34 -128 -39 -3c111,-101 -24,-19 52,-107 55,-65 36,-58 82,-122l43 9 32 -12c42,-128 136,-233 192,-358 59,-134 88,-238 224,-305 148,-73 632,-226 684,-360l-136 42z"/>
  <ellipse class="fil2" cx="3223" cy="353" rx="75" ry="52"/>
  <path class="fil3" d="M505 3043c-27,-243 309,-266 319,-46 10,222 -299,223 -319,46zm517 -19c135,-4 278,-40 388,13 -180,130 82,8 -58,29 -1,0 -40,-4 -50,-4 -30,0 -73,5 -84,3l-196 -41zm460 -500c76,55 33,7 50,81 -65,52 -54,52 -120,0 12,-73 9,-61 70,-81zm-1097 -30c136,-102 214,94 109,159 -96,59 -238,-63 -109,-159zm2258 115c-64,-35 -91,-90 -119,-154 68,34 90,89 119,154zm-345 -151c-109,-105 52,-204 91,-32l-91 32zm209 -8c-68,-37 -73,-61 -104,-133 78,45 17,-15 71,63 28,41 25,51 33,70zm-1665 -404c285,-144 454,275 202,395 -269,129 -473,-259 -202,-395zm651 137c83,4 94,9 108,91 -72,-25 -81,-31 -108,-91zm792 -74c40,-110 -8,2 37,-50 -10,128 12,126 46,230 -60,-36 -111,-102 -83,-180zm-1837 55c-16,-99 15,-123 105,-81 0,85 -19,116 -105,81zm1984 -301c-8,81 -44,120 -98,177 9,-75 -9,-45 39,-117 40,-60 25,-35 59,-60zm-901 -191c191,-81 288,205 127,279 -206,94 -325,-195 -127,-279zm-38 511c-71,-6 -38,9 -116,-47 -358,-256 -215,-245 -702,-275 5,-3 12,-6 16,-7 3,-1 11,-5 16,-7l249 -25c48,6 181,49 225,72 26,14 68,47 97,66l149 122c71,50 60,67 66,101zm910 -451c54,255 -255,-46 0,0zm29 131c7,-62 -7,-37 35,-100 37,-58 24,-35 57,-60 -7,76 -41,120 -92,160zm92 -160c7,-81 15,-86 75,-128 -21,78 -20,86 -75,128zm-1436 -241c155,-85 258,148 121,221 -151,80 -274,-137 -121,-221zm1511 113c-134,-121 -47,-247 127,-229 110,150 58,273 -127,229zm-603 -30c-102,40 -127,0 -100,-101l96 12 4 89zm203 137c-6,-118 107,-339 191,-435 24,-27 28,-28 48,-43 -37,198 -237,589 -343,779l66 -275c35,-106 -24,14 17,-20l21 -6zm-751 -521c48,-44 62,-28 105,-11 43,130 -104,157 -105,11zm591 -59c-182,109 -295,-86 -190,-190 100,-99 297,5 190,190zm839 -468c273,-85 395,349 124,417 -288,71 -404,-331 -124,-417zm524 243c-228,-46 115,-198 0,0zm148 -248c6,77 21,29 -31,54 -31,-52 -28,-46 31,-54zm276 -17l8 50 -27 -28 -54 -47 73 25zm-668 -460c242,-99 385,292 144,391 -252,102 -445,-268 -144,-391zm-373 259c-42,102 -76,106 -167,155 -4,-23 -18,-78 -21,-93 -10,-44 -13,-9 -4,-57l-300 52c-54,102 -33,7 -43,107l89 46c41,64 32,26 12,101 -89,23 -138,-4 -102,-95 -34,-34 -19,-23 -43,-33l18 -67 -307 68 -45 85c-60,89 -51,84 -164,138 -468,108 -145,145 -416,276 -318,153 -127,-135 -402,272 46,101 -118,-39 2,114l-61 23 -9 -102c-476,130 -153,56 -356,244l-8 29c42,94 13,28 80,94 -82,-9 -19,17 -86,-39l-50 56 -14 -24 -29 0c-64,150 -93,59 -168,172 -53,79 -25,152 -56,255l48 22c-50,55 -40,42 -45,118l-15 -56c-9,14 -123,289 -123,309 -1,113 28,82 61,155 19,44 49,573 442,574 341,52 1021,14 1398,13 135,1 36,2 83,-33l-482 -226 -75 -24 92 -30 66 20c187,-172 391,-136 191,-616l249 -274c65,87 47,192 188,336 73,74 206,196 259,276l138 131 -98 15c127,6 154,-16 206,106l-295 2 -14 10c333,-1 299,-59 510,163 214,224 161,150 488,167l-17 -51 -431 -515c-41,71 -11,42 -75,69l26 79 -55 -75c-67,-19 -59,-8 -78,-81l-114 -152c62,35 45,22 77,102l58 -13 81 -34 -141 -214 -185 -248 112 -158c-93,-37 -81,-64 -69,-167 82,-84 101,-80 208,-38 206,-197 306,-485 544,-683l-36 -7c108,-36 210,-77 321,-110 148,-44 289,-112 334,-41l136 -42c180,-76 -129,-234 -198,-321 -106,-134 -228,-226 -410,-244 -35,-193 -105,-379 -359,-306 -113,32 -258,233 -351,315z"/>
  <path class="fil1" d="M1585 3030l399 1c44,-43 -12,-11 67,-48 19,-10 46,-16 68,-24 80,-33 70,-44 158,-55 61,-57 62,-28 111,-68 77,-64 -6,-46 84,-84 -53,-80 -186,-202 -259,-276 -141,-144 -123,-249 -188,-336l-249 274c200,480 -4,444 -191,616z"/>
  <path class="fil3" d="M3439 2790l144 153 -144 -153zm-225 -267c74,34 79,55 151,170l18 33c-67,-31 -90,-69 -150,-167 -3,-5 -7,-13 -10,-17 -2,-5 -3,-15 -9,-19zm-183 -197l151 163c-101,-41 -114,-138 -151,-163zm-164 -92l-34 -9 -34 128c120,112 622,661 729,669 51,2 102,6 153,6 109,1 88,20 141,-37l-47 -19c-15,-28 -450,-577 -454,-580l-271 -327c-87,68 -16,41 -114,99l25 90c-64,-32 -70,-15 -94,-20z"/>
  <path class="fil4" d="M842 2046c-271,136 -67,524 202,395 252,-120 83,-539 -202,-395z"/>
  <path class="fil3" d="M2784 773c-80,108 0,205 110,250 253,5 294,-240 123,-334 -58,38 -52,-24 -153,38 -95,57 -2,6 -46,42 -31,25 -17,11 -34,4z"/>
  <path class="fil4" d="M505 3043c20,177 329,176 319,-46 -10,-220 -346,-197 -319,46z"/>
  <path class="fil4" d="M1531 1672c-198,84 -79,373 127,279 161,-74 64,-360 -127,-279z"/>
  <path class="fil4" d="M2039 1102c107,-185 -90,-289 -190,-190 -105,104 8,299 190,190z"/>
  <path class="fil5" d="M1493 2183c-6,-34 5,-51 -66,-101l-149 -122c-29,-19 -71,-52 -97,-66 -44,-23 -177,-66 -225,-72l-249 25c-5,2 -13,6 -16,7 -4,1 -11,4 -16,7 487,30 344,19 702,275 78,56 45,41 116,47z"/>
  <path class="fil4" d="M1088 1462c-153,84 -30,301 121,221 137,-73 34,-306 -121,-221z"/>
  <path class="fil1" d="M2784 773c27,-98 155,-153 233,-84 171,94 130,339 -123,334 -110,-45 -190,-142 -110,-250zm94 -139c-280,86 -164,488 124,417 271,-68 149,-502 -124,-417z"/>
  <path class="fil5" d="M2199 1682l-21 6c-41,34 18,-86 -17,20l-66 275c106,-190 306,-581 343,-779 -20,15 -24,16 -48,43 -84,96 -197,317 -191,435z"/>
  <path class="fil4" d="M2599 1575c185,44 237,-79 127,-229 -174,-18 -261,108 -127,229z"/>
  <path class="fil1" d="M3332 414c-49,43 -47,56 -115,59 -109,5 -87,-12 -110,-64l1 -114 85 -65c130,7 158,56 139,184zm-250 -161l-23 31c-54,173 42,232 199,238l37 -14 18 -6 18 -24 41 -77 6 -106 -66 -96 -26 -18c-110,-14 -144,-24 -204,72z"/>
  <path class="fil4" d="M3331 478l-18 24 -18 6 -37 14c-157,-6 -253,-65 -199,-238l23 -31c60,-96 94,-86 204,-72l26 18 66 96c18,34 46,77 -6,106l-41 77zm-173 -326c-301,123 -108,493 144,391 241,-99 98,-490 -144,-391z"/>
  <path class="fil1" d="M3528 3022c156,65 651,10 863,26l0 -57 -569 0c-53,57 -32,38 -141,37 -51,0 -102,-4 -153,-6z"/>
  <path class="fil0" d="M1984 3290c-47,35 52,34 -83,33 -377,1 -1057,39 -1398,-13 92,93 1873,-42 2106,55l1 -67c-146,47 -401,11 -567,21 39,-142 339,-119 450,-69l-1 -69c-107,33 -205,9 -316,16 -164,10 -116,80 -192,93z"/>
  <path class="fil6" d="M2277 2904l133 102c27,-86 16,-86 102,-108l98 -15 -138 -131c-90,38 -7,20 -84,84 -49,40 -50,11 -111,68z"/>
  <path class="fil4" d="M385 2494c-129,96 13,218 109,159 105,-65 27,-261 -109,-159z"/>
  <path class="fil4" d="M2665 2055l28 -23 111 -182c-107,-42 -126,-46 -208,38 -12,103 -24,130 69,167z"/>
  <path class="fil5" d="M3348 1167c188,-7 428,-121 619,-158 -45,-71 -186,-3 -334,41 -111,33 -213,74 -321,110l36 7z"/>
  <path class="fil4" d="M1984 3031l425 -15 14 -10 -13 0 -133 -102c-88,11 -78,22 -158,55 -22,8 -49,14 -68,24 -79,37 -23,5 -67,48z"/>
  <path class="fil0" d="M3390 3295l17 51 584 -2 0 -22 -574 0c76,-150 308,-92 457,-95l0 -22c-188,-5 -370,-52 -484,90z"/>
  <path class="fil6" d="M2423 3006l295 -2c-52,-122 -79,-100 -206,-106 -36,41 -52,58 -89,108z"/>
  <path class="fil4" d="M2798 2709l-21 63c19,73 11,62 78,81l29 -4c64,-27 34,2 75,-69l7 -14 -27 -28 -60 -63 -81 34z"/>
  <polygon class="fil1" points="3910,2936 4275,2934 4281,2879 3956,2877 3897,2898 "/>
  <path class="fil5" d="M2971 2002c-48,88 -85,130 -104,232 24,5 30,-12 94,20l-25 -90c98,-58 27,-31 114,-99l-47 -75 -32 12z"/>
  <path class="fil5" d="M2785 411l-192 5c-9,48 -6,13 4,57 3,15 17,70 21,93 91,-49 125,-53 167,-155z"/>
  <path class="fil5" d="M1218 3065c11,2 54,-3 84,-3 10,0 49,4 50,4 140,-21 -122,101 58,-29 -110,-53 -253,-17 -388,-13l196 41z"/>
  <path class="fil4" d="M2339 621l-90 6c-36,91 13,118 102,95 20,-75 29,-37 -12,-101z"/>
  <path class="fil3" d="M3107 409l12 -42c25,-50 1,-58 100,-57 131,1 77,27 101,56l12 48c19,-128 -9,-177 -139,-184l-85 65 -1 114z"/>
  <path class="fil4" d="M1448 1161c1,146 148,119 105,-11 -43,-17 -57,-33 -105,11z"/>
  <path class="fil4" d="M2298 2458l91 -32c-39,-172 -200,-73 -91,32z"/>
  <path class="fil4" d="M1996 1545l-4 -89 -96 -12c-27,101 -2,141 100,101z"/>
  <path class="fil4" d="M448 2164c86,35 105,4 105,-81 -90,-42 -121,-18 -105,81z"/>
  <path class="fil4" d="M1412 2605c66,52 55,52 120,0 -17,-74 26,-26 -50,-81 -61,20 -58,8 -70,81z"/>
  <path class="fil5" d="M2784 773c17,7 3,21 34,-4 44,-36 -49,15 46,-42 101,-62 95,0 153,-38 -78,-69 -206,-14 -233,84z"/>
  <path class="fil4" d="M2403 1732c-255,-46 54,255 0,0z"/>
  <path class="fil5" d="M2368 2289c-34,-104 -56,-102 -46,-230 -45,52 3,-60 -37,50 -28,78 23,144 83,180z"/>
  <path class="fil5" d="M3214 2523c6,4 7,14 9,19 3,4 7,12 10,17 60,98 83,136 150,167l-18 -33c-72,-115 -77,-136 -151,-170z"/>
  <path class="fil4" d="M3402 877c115,-198 -228,-46 0,0z"/>
  <path class="fil6" d="M3135 298l173 5c-61,-91 -118,-78 -173,-5z"/>
  <path class="fil5" d="M2224 527l-18 67c24,10 9,-1 43,33l90 -6 -89 -46c10,-100 -11,-5 43,-107l-69 59z"/>
  <path class="fil5" d="M2432 1863c-34,25 -19,0 -59,60 -48,72 -30,42 -39,117 54,-57 90,-96 98,-177z"/>
  <path class="fil5" d="M2432 1863c51,-40 85,-84 92,-160 -33,25 -20,2 -57,60 -42,63 -28,38 -35,100z"/>
  <path class="fil5" d="M822 1401l9 102 61 -23c-120,-153 44,-13 -2,-114l-68 35z"/>
  <path class="fil5" d="M1493 2183c27,60 36,66 108,91 -14,-82 -25,-87 -108,-91z"/>
  <path class="fil5" d="M388 1761l14 24 50 -56c67,56 4,30 86,39 -67,-66 -38,0 -80,-94l-70 87z"/>
  <path class="fil0" d="M3107 409c23,52 1,69 110,64 68,-3 66,-16 115,-59l-7 -27 -212 1 -6 21z"/>
  <path class="fil6" d="M3146 439c91,19 60,25 139,-16 -3,-1 7,-28 -69,-20 -72,8 -41,8 -70,36z"/>
  <path class="fil5" d="M2643 2609c-29,-65 -51,-120 -119,-154 28,64 55,119 119,154z"/>
  <polygon class="fil4" points="2609,3365 2666,3369 2684,3338 2682,3328 2660,3298 2610,3298 "/>
  <polygon class="fil4" points="2493,3250 2548,3252 2567,3218 2566,3216 2545,3182 2492,3181 "/>
  <path class="fil5" d="M2507 2450c-8,-19 -5,-29 -33,-70 -54,-78 7,-18 -71,-63 31,72 36,96 104,133z"/>
  <path class="fil4" d="M3874 3205l0 22c77,55 32,33 72,-8 -35,-70 -14,-54 -72,-14z"/>
  <path class="fil5" d="M2524 1703c55,-42 54,-50 75,-128 -60,42 -68,47 -75,128z"/>
  <path class="fil0" d="M3775 2972l47 19c43,-55 15,-48 88,-55l-13 -38 -122 74z"/>
  <polygon class="fil4" points="4275,2934 4296,2933 4331,2932 4349,2872 4281,2879 "/>
  <polygon class="fil4" points="4391,3048 4410,3050 4450,3050 4449,2990 4410,2989 4391,2991 "/>
  <path class="fil0" d="M2410 3006l13 0c37,-50 53,-67 89,-108 -86,22 -75,22 -102,108z"/>
  <path class="fil5" d="M2777 2772l21 -63 -58 13c-32,-80 -15,-67 -77,-102l114 152z"/>
  <path class="fil5" d="M123 2272l15 56c5,-76 -5,-63 45,-118l-48 -22 -12 84z"/>
  <polygon class="fil4" points="3991,3322 3991,3344 4045,3368 4058,3297 "/>
  <path class="fil5" d="M3031 2326c37,25 50,122 151,163l-151 -163z"/>
  <polygon class="fil0" points="1502,3064 1519,3010 1427,3040 "/>
  <path class="fil4" d="M3519 683c52,-25 37,23 31,-54 -59,8 -62,2 -31,54z"/>
  <path class="fil0" d="M3372 401c52,-29 24,-72 6,-106l-6 106z"/>
  <path class="fil0" d="M4045 3368l23 0c24,-128 12,-37 -10,-71l-13 71z"/>
  <polygon class="fil5" points="2884,2849 2855,2853 2910,2928 "/>
  <polygon class="fil4" points="3807,634 3826,612 3753,587 "/>
  <path class="fil0" d="M4349 2872c-57,-20 -6,-35 -68,7l68 -7z"/>
  <polygon class="fil5" points="3807,634 3834,662 3826,612 "/>
  <polygon class="fil1" points="1872,680 1917,595 1899,607 "/>
  <path class="fil0" d="M2693 2032l-28 23c39,8 30,16 28,-23z"/>
  <path class="fil0" d="M2966 2766c-2,-36 8,-28 -27,-28l27 28z"/>
  <polygon class="fil3" points="3312,199 3286,181 "/>
  <polygon class="fil3" points="3331,478 3313,502 "/>
  <polygon class="fil0" points="2566,3216 2545,3182 "/>
  <polygon class="fil3" points="3295,508 3258,522 "/>
  <polygon class="fil3" points="4449,2990 4410,2989 "/>
  <polygon class="fil0" points="2567,3218 2548,3252 "/>
  <polygon class="fil0" points="2682,3328 2660,3298 "/>
  <polygon class="fil3" points="4331,2932 4296,2933 "/>
  <polygon class="fil5" points="3439,2790 3583,2943 "/>
  <polygon class="fil7" points="255,1503 199,1392 "/>
  <polygon class="fil0" points="2684,3338 2666,3369 "/>
  <polygon class="fil0" points="3796,1568 3855,1482 "/>
  <polygon class="fil3" points="4450,3050 4410,3050 "/>
  <polygon class="fil0" points="3749,1635 3796,1568 "/>
  <polygon class="fil0" points="3082,253 3059,284 "/>
  <polygon class="fil0" points="3703,1705 3749,1635 "/>
  <path class="fil8 str0" d="M3348 349l-478 76 -111 105m580 -464l109 -52 27 492 -109 52 -27 -492z"/>
 </g>
</svg>
