<?xml version="1.0" encoding="UTF-8"?>
<!DOCTYPE svg PUBLIC "-//W3C//DTD SVG 1.1//EN" "http://www.w3.org/Graphics/SVG/1.1/DTD/svg11.dtd">
<!-- Creator: CorelDRAW X6 -->
<svg xmlns="http://www.w3.org/2000/svg" xml:space="preserve" width="212.195mm" height="51.9156mm" version="1.1" style="shape-rendering:geometricPrecision; text-rendering:geometricPrecision; image-rendering:optimizeQuality; fill-rule:evenodd; clip-rule:evenodd"
viewBox="0 0 20473 5009"
 xmlns:xlink="http://www.w3.org/1999/xlink">
 <defs>
  <style type="text/css">
   <![CDATA[
    .fil0 {fill:url(#id0)}
   ]]>
  </style>
  <linearGradient id="id0" gradientUnits="userSpaceOnUse" x1="10236.3" y1="0" x2="10236.3" y2="5008.8">
   <stop offset="0" style="stop-color:#00CCFF"/>
   <stop offset="0.721569" style="stop-color:#00AEEB"/>
   <stop offset="1" style="stop-color:#008FD7"/>
  </linearGradient>
 </defs>
 <g id="图层_x0020_1">
  <metadata id="CorelCorpID_0Corel-Layer"/>
  <path class="fil0" d="M0 67c305,54 627,151 909,151 392,0 783,-218 1174,-218 391,0 782,218 1173,218 392,0 783,-218 1174,-218 391,0 782,218 1173,218 391,0 783,-218 1174,-218 391,0 782,218 1173,218 391,0 783,-218 1174,-218 391,0 782,218 1173,218 391,0 783,-218 1174,-218 391,0 782,218 1173,218 391,0 783,-218 1174,-218 391,0 782,218 1173,218 391,0 782,-218 1174,-218 391,0 782,218 1173,218 391,0 782,-218 1174,-218 391,0 782,218 1173,218 245,0 520,-73 788,-128l0 4919 -20473 0 0 -4942z"/>
 </g>
</svg>
